<?xml version="1.0" encoding="UTF-8" standalone="no"?>
<!DOCTYPE svg PUBLIC "-//W3C//DTD SVG 1.1//EN"
 "http://www.w3.org/Graphics/SVG/1.1/DTD/svg11.dtd">
<!-- Generated by graphviz version 2.40.1 (20161225.0304)
 -->
<!-- Title: dependencies Pages: 1 -->
<svg width="674pt" height="211pt"
 viewBox="0.00 0.00 674.00 211.00" xmlns="http://www.w3.org/2000/svg" xmlns:xlink="http://www.w3.org/1999/xlink">
<g id="graph0" class="graph" transform="scale(1 1) rotate(0) translate(4 207)">
<title>dependencies</title>
<polygon fill="#ffffff" stroke="transparent" points="-4,4 -4,-207 670,-207 670,4 -4,4"/>
<text text-anchor="start" x="312.0091" y="-42.4" font-family="sans-serif" font-weight="bold" font-size="14.00" fill="#000000">Legend</text>
<polygon fill="#ffffb3" stroke="transparent" points="99,-10 99,-30 119,-30 119,-10 99,-10"/>
<text text-anchor="start" x="122.629" y="-15.4" font-family="sans-serif" font-size="14.00" fill="#000000"> &#160;Declarations</text>
<polygon fill="#8dd3c7" stroke="transparent" points="212,-10 212,-30 232,-30 232,-10 212,-10"/>
<text text-anchor="start" x="235.7251" y="-15.4" font-family="sans-serif" font-size="14.00" fill="#000000"> &#160;Module</text>
<polygon fill="#80b1d3" stroke="transparent" points="298,-10 298,-30 318,-30 318,-10 298,-10"/>
<text text-anchor="start" x="321.7812" y="-15.4" font-family="sans-serif" font-size="14.00" fill="#000000"> &#160;Bootstrap</text>
<polygon fill="#fdb462" stroke="transparent" points="395,-10 395,-30 415,-30 415,-10 395,-10"/>
<text text-anchor="start" x="418.6732" y="-15.4" font-family="sans-serif" font-size="14.00" fill="#000000"> &#160;Providers</text>
<polygon fill="#fb8072" stroke="transparent" points="491,-10 491,-30 511,-30 511,-10 491,-10"/>
<text text-anchor="start" x="514.7258" y="-15.4" font-family="sans-serif" font-size="14.00" fill="#000000"> &#160;Exports</text>
<g id="clust1" class="cluster">
<title>cluster_CrudServiceModule</title>
<polygon fill="none" stroke="#000000" stroke-dasharray="1,5" points="8,-70 8,-195 658,-195 658,-70 8,-70"/>
</g>
<g id="clust6" class="cluster">
<title>cluster_CrudServiceModule_providers</title>
<polygon fill="none" stroke="#000000" points="16,-78 16,-130 650,-130 650,-78 16,-78"/>
</g>
<!-- DataCreate -->
<g id="node1" class="node">
<title>DataCreate</title>
<ellipse fill="#fdb462" stroke="#000000" cx="588" cy="-104" rx="54.4276" ry="18"/>
<text text-anchor="middle" x="588" y="-99.8" font-family="Times,serif" font-size="14.00" fill="#000000">DataCreate</text>
</g>
<!-- CrudServiceModule -->
<g id="node6" class="node">
<title>CrudServiceModule</title>
<polygon fill="#8dd3c7" stroke="#000000" points="403.5255,-187 400.5255,-191 379.5255,-191 376.5255,-187 274.4745,-187 274.4745,-151 403.5255,-151 403.5255,-187"/>
<text text-anchor="middle" x="339" y="-164.8" font-family="Times,serif" font-size="14.00" fill="#000000">CrudServiceModule</text>
</g>
<!-- DataCreate&#45;&gt;CrudServiceModule -->
<g id="edge1" class="edge">
<title>DataCreate&#45;&gt;CrudServiceModule</title>
<path fill="none" stroke="#000000" d="M588,-122.1061C588,-141.3391 588,-169 588,-169 588,-169 413.7718,-169 413.7718,-169"/>
<polygon fill="#000000" stroke="#000000" points="413.7718,-165.5001 403.7718,-169 413.7718,-172.5001 413.7718,-165.5001"/>
</g>
<!-- DataDelete -->
<g id="node2" class="node">
<title>DataDelete</title>
<ellipse fill="#fdb462" stroke="#000000" cx="461" cy="-104" rx="54.4276" ry="18"/>
<text text-anchor="middle" x="461" y="-99.8" font-family="Times,serif" font-size="14.00" fill="#000000">DataDelete</text>
</g>
<!-- DataDelete&#45;&gt;CrudServiceModule -->
<g id="edge2" class="edge">
<title>DataDelete&#45;&gt;CrudServiceModule</title>
<path fill="none" stroke="#000000" d="M406.3886,-104C400.1293,-104 395.9347,-104 395.9347,-104 395.9347,-104 395.9347,-140.8939 395.9347,-140.8939"/>
<polygon fill="#000000" stroke="#000000" points="392.4348,-140.8938 395.9347,-150.8939 399.4348,-140.8939 392.4348,-140.8938"/>
</g>
<!-- DataRead -->
<g id="node3" class="node">
<title>DataRead</title>
<ellipse fill="#fdb462" stroke="#000000" cx="339" cy="-104" rx="49.2144" ry="18"/>
<text text-anchor="middle" x="339" y="-99.8" font-family="Times,serif" font-size="14.00" fill="#000000">DataRead</text>
</g>
<!-- DataRead&#45;&gt;CrudServiceModule -->
<g id="edge3" class="edge">
<title>DataRead&#45;&gt;CrudServiceModule</title>
<path fill="none" stroke="#000000" d="M339,-122.1061C339,-122.1061 339,-140.991 339,-140.991"/>
<polygon fill="#000000" stroke="#000000" points="335.5001,-140.9909 339,-150.991 342.5001,-140.991 335.5001,-140.9909"/>
</g>
<!-- DataService -->
<g id="node4" class="node">
<title>DataService</title>
<ellipse fill="#fdb462" stroke="#000000" cx="214" cy="-104" rx="58.4415" ry="18"/>
<text text-anchor="middle" x="214" y="-99.8" font-family="Times,serif" font-size="14.00" fill="#000000">DataService</text>
</g>
<!-- DataService&#45;&gt;CrudServiceModule -->
<g id="edge4" class="edge">
<title>DataService&#45;&gt;CrudServiceModule</title>
<path fill="none" stroke="#000000" d="M272.3132,-104C278.2007,-104 282.0653,-104 282.0653,-104 282.0653,-104 282.0653,-140.8939 282.0653,-140.8939"/>
<polygon fill="#000000" stroke="#000000" points="278.5654,-140.8938 282.0653,-150.8939 285.5654,-140.8939 278.5654,-140.8938"/>
</g>
<!-- DataUpdate -->
<g id="node5" class="node">
<title>DataUpdate</title>
<ellipse fill="#fdb462" stroke="#000000" cx="81" cy="-104" rx="57.3011" ry="18"/>
<text text-anchor="middle" x="81" y="-99.8" font-family="Times,serif" font-size="14.00" fill="#000000">DataUpdate</text>
</g>
<!-- DataUpdate&#45;&gt;CrudServiceModule -->
<g id="edge5" class="edge">
<title>DataUpdate&#45;&gt;CrudServiceModule</title>
<path fill="none" stroke="#000000" d="M81,-122.1061C81,-141.3391 81,-169 81,-169 81,-169 264.2287,-169 264.2287,-169"/>
<polygon fill="#000000" stroke="#000000" points="264.2288,-172.5001 274.2287,-169 264.2287,-165.5001 264.2288,-172.5001"/>
</g>
</g>
</svg>
