<?xml version="1.0" encoding="UTF-8" standalone="no"?>
<!DOCTYPE svg PUBLIC "-//W3C//DTD SVG 1.1//EN"
 "http://www.w3.org/Graphics/SVG/1.1/DTD/svg11.dtd">
<!-- Generated by graphviz version 2.40.1 (20161225.0304)
 -->
<!-- Title: dependencies Pages: 1 -->
<svg width="674pt" height="360pt"
 viewBox="0.00 0.00 674.00 360.00" xmlns="http://www.w3.org/2000/svg" xmlns:xlink="http://www.w3.org/1999/xlink">
<g id="graph0" class="graph" transform="scale(1 1) rotate(0) translate(4 356)">
<title>dependencies</title>
<polygon fill="#ffffff" stroke="transparent" points="-4,4 -4,-356 670,-356 670,4 -4,4"/>
<text text-anchor="start" x="312.0091" y="-42.4" font-family="sans-serif" font-weight="bold" font-size="14.00" fill="#000000">Legend</text>
<polygon fill="#ffffb3" stroke="transparent" points="99,-10 99,-30 119,-30 119,-10 99,-10"/>
<text text-anchor="start" x="122.629" y="-15.4" font-family="sans-serif" font-size="14.00" fill="#000000"> &#160;Declarations</text>
<polygon fill="#8dd3c7" stroke="transparent" points="212,-10 212,-30 232,-30 232,-10 212,-10"/>
<text text-anchor="start" x="235.7251" y="-15.4" font-family="sans-serif" font-size="14.00" fill="#000000"> &#160;Module</text>
<polygon fill="#80b1d3" stroke="transparent" points="298,-10 298,-30 318,-30 318,-10 298,-10"/>
<text text-anchor="start" x="321.7812" y="-15.4" font-family="sans-serif" font-size="14.00" fill="#000000"> &#160;Bootstrap</text>
<polygon fill="#fdb462" stroke="transparent" points="395,-10 395,-30 415,-30 415,-10 395,-10"/>
<text text-anchor="start" x="418.6732" y="-15.4" font-family="sans-serif" font-size="14.00" fill="#000000"> &#160;Providers</text>
<polygon fill="#fb8072" stroke="transparent" points="491,-10 491,-30 511,-30 511,-10 491,-10"/>
<text text-anchor="start" x="514.7258" y="-15.4" font-family="sans-serif" font-size="14.00" fill="#000000"> &#160;Exports</text>
<g id="clust1" class="cluster">
<title>cluster_AppModule</title>
<polygon fill="none" stroke="#000000" stroke-dasharray="1,5" points="134,-146 134,-344 550,-344 550,-146 134,-146"/>
</g>
<g id="clust2" class="cluster">
<title>cluster_AppModule_declarations</title>
<polygon fill="none" stroke="#000000" points="420,-154 420,-206 542,-206 542,-154 420,-154"/>
</g>
<g id="clust4" class="cluster">
<title>cluster_AppModule_imports</title>
<polygon fill="none" stroke="#000000" points="142,-154 142,-206 412,-206 412,-154 142,-154"/>
</g>
<g id="clust6" class="cluster">
<title>cluster_AppModule_bootstrap</title>
<polygon fill="none" stroke="#000000" points="277,-284 277,-336 401,-336 401,-284 277,-284"/>
</g>
<g id="clust8" class="cluster">
<title>cluster_CrudServiceModule</title>
<polygon fill="none" stroke="#000000" stroke-dasharray="1,5" points="8,-70 8,-138 658,-138 658,-70 8,-70"/>
</g>
<g id="clust13" class="cluster">
<title>cluster_CrudServiceModule_providers</title>
<polygon fill="none" stroke="#000000" points="16,-78 16,-130 650,-130 650,-78 16,-78"/>
</g>
<!-- AppComponent -->
<g id="node1" class="node">
<title>AppComponent</title>
<polygon fill="#ffffb3" stroke="#000000" points="533.9399,-198 428.0601,-198 428.0601,-162 533.9399,-162 533.9399,-198"/>
<text text-anchor="middle" x="481" y="-175.8" font-family="Times,serif" font-size="14.00" fill="#000000">AppComponent</text>
</g>
<!-- AppModule -->
<g id="node2" class="node">
<title>AppModule</title>
<polygon fill="#8dd3c7" stroke="#000000" points="380.6571,-263 377.6571,-267 356.6571,-267 353.6571,-263 297.3429,-263 297.3429,-227 380.6571,-227 380.6571,-263"/>
<text text-anchor="middle" x="339" y="-240.8" font-family="Times,serif" font-size="14.00" fill="#000000">AppModule</text>
</g>
<!-- AppComponent&#45;&gt;AppModule -->
<g id="edge1" class="edge">
<title>AppComponent&#45;&gt;AppModule</title>
<path fill="none" stroke="#000000" d="M481,-198.1061C481,-217.3391 481,-245 481,-245 481,-245 390.8367,-245 390.8367,-245"/>
<polygon fill="#000000" stroke="#000000" points="390.8367,-241.5001 380.8367,-245 390.8366,-248.5001 390.8367,-241.5001"/>
</g>
<!-- AppComponent  -->
<g id="node5" class="node">
<title>AppComponent </title>
<polygon fill="#80b1d3" stroke="#000000" points="393.439,-328 284.561,-328 284.561,-292 393.439,-292 393.439,-328"/>
<text text-anchor="middle" x="339" y="-305.8" font-family="Times,serif" font-size="14.00" fill="#000000">AppComponent </text>
</g>
<!-- AppModule&#45;&gt;AppComponent  -->
<g id="edge4" class="edge">
<title>AppModule&#45;&gt;AppComponent </title>
<path fill="none" stroke="#000000" stroke-dasharray="1,5" d="M339,-263.1061C339,-263.1061 339,-281.991 339,-281.991"/>
<polygon fill="#000000" stroke="#000000" points="335.5001,-281.9909 339,-291.991 342.5001,-281.991 335.5001,-281.9909"/>
</g>
<!-- CrudServiceModule -->
<g id="node3" class="node">
<title>CrudServiceModule</title>
<polygon fill="#8dd3c7" stroke="#000000" points="403.5255,-198 400.5255,-202 379.5255,-202 376.5255,-198 274.4745,-198 274.4745,-162 403.5255,-162 403.5255,-198"/>
<text text-anchor="middle" x="339" y="-175.8" font-family="Times,serif" font-size="14.00" fill="#000000">CrudServiceModule</text>
</g>
<!-- CrudServiceModule&#45;&gt;AppModule -->
<g id="edge2" class="edge">
<title>CrudServiceModule&#45;&gt;AppModule</title>
<path fill="none" stroke="#000000" d="M339,-198.1061C339,-198.1061 339,-216.991 339,-216.991"/>
<polygon fill="#000000" stroke="#000000" points="335.5001,-216.9909 339,-226.991 342.5001,-216.991 335.5001,-216.9909"/>
</g>
<!-- MaterialModule -->
<g id="node4" class="node">
<title>MaterialModule</title>
<polygon fill="#8dd3c7" stroke="#000000" points="256.4706,-198 253.4706,-202 232.4706,-202 229.4706,-198 149.5294,-198 149.5294,-162 256.4706,-162 256.4706,-198"/>
<text text-anchor="middle" x="203" y="-175.8" font-family="Times,serif" font-size="14.00" fill="#000000">MaterialModule</text>
</g>
<!-- MaterialModule&#45;&gt;AppModule -->
<g id="edge3" class="edge">
<title>MaterialModule&#45;&gt;AppModule</title>
<path fill="none" stroke="#000000" d="M203,-198.1061C203,-217.3391 203,-245 203,-245 203,-245 287.0858,-245 287.0858,-245"/>
<polygon fill="#000000" stroke="#000000" points="287.0858,-248.5001 297.0858,-245 287.0858,-241.5001 287.0858,-248.5001"/>
</g>
<!-- DataCreate -->
<g id="node6" class="node">
<title>DataCreate</title>
<ellipse fill="#fdb462" stroke="#000000" cx="588" cy="-104" rx="54.4276" ry="18"/>
<text text-anchor="middle" x="588" y="-99.8" font-family="Times,serif" font-size="14.00" fill="#000000">DataCreate</text>
</g>
<!-- DataCreate&#45;&gt;CrudServiceModule -->
<g id="edge5" class="edge">
<title>DataCreate&#45;&gt;CrudServiceModule</title>
<path fill="none" stroke="#000000" d="M588.0916,-122.0439C588.0916,-134.5633 588.0916,-149 588.0916,-149 588.0916,-149 398.5439,-149 398.5439,-149 398.5439,-149 398.5439,-151.9672 398.5439,-151.9672"/>
<polygon fill="#000000" stroke="#000000" points="395.044,-151.9671 398.5439,-161.9672 402.044,-151.9672 395.044,-151.9671"/>
</g>
<!-- DataDelete -->
<g id="node7" class="node">
<title>DataDelete</title>
<ellipse fill="#fdb462" stroke="#000000" cx="461" cy="-104" rx="54.4276" ry="18"/>
<text text-anchor="middle" x="461" y="-99.8" font-family="Times,serif" font-size="14.00" fill="#000000">DataDelete</text>
</g>
<!-- DataDelete&#45;&gt;CrudServiceModule -->
<g id="edge6" class="edge">
<title>DataDelete&#45;&gt;CrudServiceModule</title>
<path fill="none" stroke="#000000" d="M406.3738,-104C398.6786,-104 393.3255,-104 393.3255,-104 393.3255,-104 393.3255,-151.9891 393.3255,-151.9891"/>
<polygon fill="#000000" stroke="#000000" points="389.8256,-151.989 393.3255,-161.9891 396.8256,-151.9891 389.8256,-151.989"/>
</g>
<!-- DataRead -->
<g id="node8" class="node">
<title>DataRead</title>
<ellipse fill="#fdb462" stroke="#000000" cx="339" cy="-104" rx="49.2144" ry="18"/>
<text text-anchor="middle" x="339" y="-99.8" font-family="Times,serif" font-size="14.00" fill="#000000">DataRead</text>
</g>
<!-- DataRead&#45;&gt;CrudServiceModule -->
<g id="edge7" class="edge">
<title>DataRead&#45;&gt;CrudServiceModule</title>
<path fill="none" stroke="#000000" d="M339,-122.0109C339,-122.0109 339,-151.855 339,-151.855"/>
<polygon fill="#000000" stroke="#000000" points="335.5001,-151.8549 339,-161.855 342.5001,-151.855 335.5001,-151.8549"/>
</g>
<!-- DataService -->
<g id="node9" class="node">
<title>DataService</title>
<ellipse fill="#fdb462" stroke="#000000" cx="214" cy="-104" rx="58.4415" ry="18"/>
<text text-anchor="middle" x="214" y="-99.8" font-family="Times,serif" font-size="14.00" fill="#000000">DataService</text>
</g>
<!-- DataService&#45;&gt;CrudServiceModule -->
<g id="edge8" class="edge">
<title>DataService&#45;&gt;CrudServiceModule</title>
<path fill="none" stroke="#000000" d="M264.3528,-113.3191C264.3528,-133.6133 264.3528,-180 264.3528,-180 264.3528,-180 265.3595,-180 265.3595,-180"/>
<polygon fill="#000000" stroke="#000000" points="264.4201,-183.5001 274.4201,-180 264.42,-176.5001 264.4201,-183.5001"/>
</g>
<!-- DataUpdate -->
<g id="node10" class="node">
<title>DataUpdate</title>
<ellipse fill="#fdb462" stroke="#000000" cx="81" cy="-104" rx="57.3011" ry="18"/>
<text text-anchor="middle" x="81" y="-99.8" font-family="Times,serif" font-size="14.00" fill="#000000">DataUpdate</text>
</g>
<!-- DataUpdate&#45;&gt;CrudServiceModule -->
<g id="edge9" class="edge">
<title>DataUpdate&#45;&gt;CrudServiceModule</title>
<path fill="none" stroke="#000000" d="M81,-122.2434C81,-129.4297 81,-136 81,-136 81,-136 282.0653,-136 282.0653,-136 282.0653,-136 282.0653,-151.8495 282.0653,-151.8495"/>
<polygon fill="#000000" stroke="#000000" points="278.5654,-151.8494 282.0653,-161.8495 285.5654,-151.8495 278.5654,-151.8494"/>
</g>
</g>
</svg>
